<svg xmlns="http://www.w3.org/2000/svg" viewBox="0 0 1920 788"><defs><style>.cls-1{fill:#efcfe3;}.cls-2{fill:#e8c1db;}</style></defs><title>Ativo 1</title><g id="Camada_2" data-name="Camada 2"><g id="Camada_1-2" data-name="Camada 1"><g id="Banner"><g id="Fundo"><rect id="Fundo-2" data-name="Fundo" class="cls-1" width="1920" height="788"/><g id="Icons"><path class="cls-2" d="M162.77,130.08c0-2.87,0-5.74,0-8.61a1.17,1.17,0,0,0-.6-1.14,35.28,35.28,0,0,1-9.52-9,15.83,15.83,0,0,1-3-8.64,8.94,8.94,0,0,1,7-9.17A8.66,8.66,0,0,1,165.47,97c.32.4.42.38.7,0a8.92,8.92,0,0,1,10-3.21,9.19,9.19,0,0,1,5.88,8.89,16.83,16.83,0,0,1-4.08,10,37,37,0,0,1-8.55,7.64,1.09,1.09,0,0,0-.54,1q0,8.64,0,17.28a3,3,0,0,1-6,.87,6.74,6.74,0,0,1-.08-1Z"/><path class="cls-2" d="M284.51,257c.65.12,1.31.23,2,.37a14.57,14.57,0,0,1,4.52,1.83c.25.15.32.24.07.48q-3.63,3.6-7.22,7.22c-.21.21-.32.23-.54,0q-3.72-3.76-7.48-7.48c-.3-.3-.18-.38.1-.53a15.23,15.23,0,0,1,5.6-1.81c.1,0,.23,0,.28-.09h.93a2.55,2.55,0,0,0,1,0Z"/><path class="cls-2" d="M298.07,271.89H286.61c-.32,0-.44,0-.47-.41a2.48,2.48,0,0,0-.69-1.53c-.18-.2-.15-.3,0-.47q4-3.94,7.9-7.91c.25-.25.36-.19.56,0a14.91,14.91,0,0,1,4,8.61c0,.1-.05.22.09.28v.37a.12.12,0,0,0,0,.19Z"/><path class="cls-2" d="M266.57,293.48c-.4.65-.78,1.28-1.17,1.9-1.3,2.14-2.59,4.28-3.91,6.41a5.95,5.95,0,0,1-11-3.62,5.48,5.48,0,0,1,.78-2.49c.41-.66.81-1.32,1.21-2a.43.43,0,0,1,.43-.26H266.4Z"/><path class="cls-2" d="M297.77,274.86a13.73,13.73,0,0,1-1.24,3.59c-.5,1-1.07,2-1.66,2.95a5.95,5.95,0,1,1-10.08-6.32.38.38,0,0,1,.36-.22Z"/><path class="cls-2" d="M265.8,271.89c1.11-1.83,2.18-3.59,3.26-5.35.8-1.32,1.59-2.65,2.51-3.89a11.78,11.78,0,0,1,1.34-1.48c.16-.16.26-.21.44,0,2.67,2.68,5.36,5.36,8,8.05.09.08.26.16.05.31a7.69,7.69,0,0,0-1.59,2.2c-.15.24-.26.39-.59.27a2.25,2.25,0,0,0-.82-.08Z"/><path class="cls-2" d="M272.46,283.81l-3.93,6.45a.39.39,0,0,1-.41.21H254.56c-.06-.15.06-.23.12-.32q1.84-3,3.68-6.06a.52.52,0,0,1,.49-.32c4.48,0,8.95,0,13.42,0Z"/><path class="cls-2" d="M260.38,280.78l3.6-5.9c.06-.09.08-.23.27-.16a4.86,4.86,0,0,0,1.74.14h11.83c.07.16-.05.24-.11.34l-3.23,5.3a.51.51,0,0,1-.49.32H260.58Z"/><path class="cls-2" d="M528.23,66a2.34,2.34,0,0,1,1.49-1.13q5.82-2,11.63-4c.36-.13.5-.16.6.31A9,9,0,0,0,559.62,61a8.92,8.92,0,0,0-.84-5.94,2.51,2.51,0,0,1-.13-.28l7.71-2.68c1.8-.63,1.8-.64,3.37.48a16.75,16.75,0,0,1,6.8,10.71c1.27,6.25-.89,11.37-5.37,15.66a17.94,17.94,0,0,1-2.27,1.8,1.77,1.77,0,0,1-1.75.2c-2.48-.88-5-1.74-7.47-2.61l-.34-.1c0,1.89,0,3.76,0,5.62a2.86,2.86,0,0,1-.67,1.93,2.84,2.84,0,0,1-5-1.77q0-3.65,0-7.27a.6.6,0,0,0-.49-.7Q541.37,72,529.6,67.87a2.35,2.35,0,0,1-1.37-1.06Zm39.18-4.35a1.41,1.41,0,0,0,1.42-1.41,1.43,1.43,0,1,0-2.85,0A1.42,1.42,0,0,0,567.41,61.61Zm-5.73,5.7a1.42,1.42,0,0,0,1.45-1.37,1.43,1.43,0,1,0-2.85-.06A1.42,1.42,0,0,0,561.68,67.31Zm7.62,1a1.42,1.42,0,0,0,1.44-1.39,1.43,1.43,0,1,0-2.86,0A1.42,1.42,0,0,0,569.3,68.26ZM564.56,74A1.42,1.42,0,0,0,566,72.56a1.43,1.43,0,1,0-2.85,0A1.43,1.43,0,0,0,564.56,74Z"/><path class="cls-2" d="M528.23,77.94c.18-.11.32,0,.47.07l22,7.63a.86.86,0,0,1,.58.55,5.68,5.68,0,0,0,8,2.76.73.73,0,0,1,.66-.09c2.06.73,4.14,1.45,6.21,2.17.19.07.37.09.37.39,0,1.47,0,3,0,4.48l-2.28-.78q-17.34-6-34.67-12.06a2.36,2.36,0,0,1-1.28-1Z"/><path class="cls-2" d="M528.23,70.43l7.17,2.47,15,5.21a.49.49,0,0,1,.4.56c0,1.31,0,2.62,0,4l-2.54-.88L528.73,75c-.16-.06-.31-.18-.5-.11Z"/><path class="cls-2" d="M569.31,96V84.18a.57.57,0,0,1,.38-.64,13.74,13.74,0,0,0,3.11-2.24,21.38,21.38,0,0,0,4-4.75c.11,0,.07.14.07.21,0,3,0,6,0,9.07A11.29,11.29,0,0,1,575.72,91,9.77,9.77,0,0,1,570,95.8c-.16.06-.35,0-.46.2Z"/><path class="cls-2" d="M550.75,65.41a6.27,6.27,0,0,1-6.06-5.06,6.15,6.15,0,0,1,4-6.94c.47-.17.47-.34.3-.73a4.88,4.88,0,0,0-2.48-2.56,1.63,1.63,0,0,1-.81-.7,1.41,1.41,0,0,1,.21-1.63,1.39,1.39,0,0,1,1.65-.33,7.56,7.56,0,0,1,4.14,4.34c.17.44.16,1,.45,1.33s.84.31,1.25.5a6.17,6.17,0,0,1-1.72,11.68Z"/><path class="cls-2" d="M566.46,88.13l-4.61-1.61c-.1,0-.27,0-.17-.23a8.64,8.64,0,0,0,.5-3.87s0-.08,0-.18c.95.33,1.89.64,2.82,1,.47.17,1.12.18,1.36.56s.07,1,.07,1.44Z"/><path class="cls-2" d="M1598.28,575.31c.31-.82.39-1.71.71-2.52a11.74,11.74,0,0,1,2.75-4.18,10.93,10.93,0,0,0,.71,3.9,10.05,10.05,0,0,0,8.83,6.66,9.94,9.94,0,0,0,9.63-4.69,9.37,9.37,0,0,0,1.6-6.59c-.06-.51.21-.38.46-.33l8,1.43,17.69,3.18c2.85.52,5.69,1,8.54,1.52.31.06.45.16.44.52,0,1.14,0,2.28,0,3.41,0,.39-.15.49-.46.56q-8.28,2-16.55,4.06c-.48.12-.63.28-.62.78,0,2.2,0,4.41,0,6.61a3.47,3.47,0,0,1-5.79,2.61,3.4,3.4,0,0,1-1.15-2.68c0-1.64,0-3.28,0-4.92,0-.38-.06-.51-.47-.4q-3,.78-6.11,1.52c-.34.08-.39.25-.39.55,0,3.38,0,6.76,0,10.14a3.48,3.48,0,1,1-6.95.07c0-2.64,0-5.29,0-7.93v-1c-1.52.37-3,.77-4.49,1.09a23.6,23.6,0,0,1-4.23.9,11.89,11.89,0,0,1-11.45-8c-.28-.84-.36-1.71-.69-2.53Z"/><path class="cls-2" d="M1598.28,587.47c.19-.15.22,0,.29.13a14.75,14.75,0,0,0,9,5.27c.37.07,1,0,1.09.21s.08.81.08,1.24V614h-.46c-.08-.19-.27-.12-.4-.16a12.29,12.29,0,0,1-9-8.2c-.27-.75-.28-1.56-.61-2.3Z"/><path class="cls-2" d="M1657.6,598.66c0,1.44,0,2.87,0,4.29,0,.37-.27.33-.46.37L1650,605l-37.28,8.71c-.43.1-.56.07-.55-.41,0-1.12,0-2.24,0-3.36,0-.34.07-.49.44-.58q22.25-5.29,44.48-10.62Z"/><path class="cls-2" d="M1607,554.72c.56,0,1.31-.21,1.61.06s.16,1.05.2,1.6a21.76,21.76,0,0,0,1.23,5.51c.16.43.4.24.63.19a6.77,6.77,0,0,1,7.8,3.8,6.93,6.93,0,1,1-11.59-1.51.66.66,0,0,0,.13-.8,24.17,24.17,0,0,1-1.77-8.38c0-.4.07-.56.49-.52a10.76,10.76,0,0,0,1.27,0Z"/><path class="cls-2" d="M1626.45,602.39a6.86,6.86,0,0,0,3-4.92.41.41,0,0,1,.36-.43c1.26-.29,2.51-.61,3.75-.94a1,1,0,0,1,.56.08,6.74,6.74,0,0,0,7.49-1.86,1.2,1.2,0,0,1,.56-.37q7.5-1.83,15-3.69c.12,0,.26,0,.44-.07,0,1.55,0,3.07,0,4.59,0,.31-.2.31-.41.36l-9.49,2.27-20.79,4.94A.82.82,0,0,1,1626.45,602.39Z"/><path class="cls-2" d="M1657.6,581.64c0,1.58,0,3.11,0,4.63,0,.34-.2.35-.43.41l-11.73,2.88-2,.49c0-1.58,0-3.1,0-4.62,0-.34.19-.35.42-.41l10.77-2.65Z"/><path class="cls-2" d="M1612.19,605.89c0-1.41,0-2.78,0-4.15,0-.24.11-.32.33-.37,1.3-.32,2.61-.64,3.91-1,.21,0,.35-.06.49.14a7.52,7.52,0,0,0,4.78,3.07Z"/><path class="cls-2" d="M1612.19,597.86v-4.68c0-.16,0-.31.19-.36l3.29-.79v4.68c0,.17,0,.3-.21.35Z"/><path class="cls-2" d="M1629.56,590.81a11.74,11.74,0,0,0,1,2.4c-1,.46-1,.45-1-.56Z"/><path class="cls-2" d="M1297.07,568.08v4.81c-.32.63-.36,1.34-.62,2a17,17,0,0,1-6,7.4,35.28,35.28,0,0,1-17.73,6.51,5.52,5.52,0,0,0-1.61.21h-5.48c-.07-.17-.22-.1-.34-.11a40.93,40.93,0,0,1-7.85-1.35,30.84,30.84,0,0,1-12.73-6.67,14.55,14.55,0,0,1-4.55-6.77c-.78-2.77-.19-5.58-.14-8.5l.82.56a37.14,37.14,0,0,0,18.21,6.38,45.27,45.27,0,0,0,13.48-1.1,32.3,32.3,0,0,0,22.25-17.28c.06.22.12.37.16.53a69,69,0,0,1,1.93,11.77A4.68,4.68,0,0,0,1297.07,568.08Z"/><path class="cls-2" d="M1243.06,551.09a18.94,18.94,0,0,0,5.94,4.16,33.74,33.74,0,0,0,10.24,2.76,36.34,36.34,0,0,0,8.53.12c4.35-.52,8.36-1.84,11.63-4.9a13.32,13.32,0,0,0,4.33-10.89,11.82,11.82,0,0,0-3.33-7.21c-.38-.43-.82-.8-1.32-1.29a4,4,0,0,1,1.34.51A25,25,0,0,1,1291,544.82a40.19,40.19,0,0,1,2.66,5.82,1.27,1.27,0,0,1,0,1.06,29.92,29.92,0,0,1-20.17,17.38,40.72,40.72,0,0,1-13.27,1.46,34.72,34.72,0,0,1-19.46-6.95c-.24-.19-.47-.34-.44-.75A57.21,57.21,0,0,1,1243.06,551.09Z"/><path class="cls-2" d="M1255.22,535.11a10.75,10.75,0,0,0-1.76,3.41,8.79,8.79,0,0,0,3.71,9.9,15.58,15.58,0,0,0,6.8,2.5,17.68,17.68,0,0,0,7.59-.31c3.23-1,5.42-3,6-6.43a6.07,6.07,0,0,0-2.46-6.37,10.55,10.55,0,0,0-11-.9,4.62,4.62,0,0,0-2.61,3.05,4.27,4.27,0,0,0,2,4.65,8.68,8.68,0,0,0,5,1.43,1,1,0,0,0,1.06-1,1,1,0,0,0-1-1,7.54,7.54,0,0,1-3.48-.87,2.32,2.32,0,0,1,0-4.42,6.16,6.16,0,0,1,2.7-.82,10.28,10.28,0,0,1,4.87.73,4.94,4.94,0,0,1,1.73,8,7,7,0,0,1-4.29,2.19,16.91,16.91,0,0,1-10.85-1.62,6.88,6.88,0,0,1-3.94-6.68,7.57,7.57,0,0,1,3.5-5.88,16.4,16.4,0,0,1,8.16-2.88,14,14,0,0,1,11.73,4.33,10,10,0,0,1,3.07,5.77,11,11,0,0,1-2.77,8.89,15.66,15.66,0,0,1-8.77,4.86,30.6,30.6,0,0,1-10,.39,31.69,31.69,0,0,1-9.85-2.51,16.6,16.6,0,0,1-6-4.3c-.17-.2-.32-.36-.18-.68a29,29,0,0,1,8.56-11.74A14,14,0,0,1,1255.22,535.11Z"/><path class="cls-2" d="M1229,249.27c0-.14-.16-.14-.26-.18a2.71,2.71,0,0,1-1.77-2.33c-.4-3.5-.78-7-1.18-10.5,0-.39,0-.51.44-.5,1.74,0,3.47,0,5.2,0a1,1,0,0,1,.75.32l7.31,7.32c.54.54.67.54,1.21,0q3.64-3.63,7.27-7.28a1.13,1.13,0,0,1,.9-.36c1.71,0,3.43,0,5.14,0,.36,0,.44.08.4.44-.34,2.91-.66,5.83-1,8.74-.06.57-.12,1.13-.19,1.7a2.71,2.71,0,0,1-2.22,2.55s0,.05,0,.08Z"/><path class="cls-2" d="M1241.22,190.72c0,1.73,0,3.46,0,5.19,0,.36-.06.51-.46.47a6.28,6.28,0,0,0-1.37,0c-.4,0-.46-.11-.46-.47,0-1.73,0-3.46,0-5.19Z"/><path class="cls-2" d="M1256.32,210.14h-32.49a16.73,16.73,0,0,1,32.49,0Z"/><path class="cls-2" d="M1228.62,229.28c1,0,2.06,0,3.09,0a1.19,1.19,0,0,0,1-.39c2.32-2.34,4.66-4.66,7-7,.33-.34.5-.4.86,0,2.3,2.34,4.63,4.64,6.94,7a1.4,1.4,0,0,0,1.1.46c2.06,0,4.11,0,6.17,0,.39,0,.47.09.42.48-.19,1.47-.37,2.94-.51,4.42,0,.43-.15.57-.6.56-1.84,0-3.69,0-5.54,0a1.27,1.27,0,0,0-1,.41c-2.33,2.35-4.68,4.68-7,7-.29.29-.44.33-.75,0-2.31-2.34-4.66-4.66-7-7a1.43,1.43,0,0,0-1.1-.47c-1.84,0-3.69,0-5.54,0-.37,0-.52-.07-.56-.48-.14-1.52-.32-3-.52-4.54,0-.38.06-.45.41-.44C1226.49,229.29,1227.55,229.28,1228.62,229.28Z"/><path class="cls-2" d="M1240.07,218.25h15.66c.52,0,.71,0,.63.65-.37,2.85-.66,5.71-1,8.57-.08.78-.08.78-.84.78-1.91,0-3.81,0-5.72,0a1.06,1.06,0,0,1-.84-.35q-3.63-3.66-7.27-7.28c-.56-.56-.7-.56-1.26,0q-3.65,3.63-7.27,7.28a1.08,1.08,0,0,1-.85.35q-3,0-6,0c-.34,0-.48-.06-.52-.44q-.51-4.62-1-9.25c0-.22,0-.32.25-.3h16.06Z"/><path class="cls-2" d="M1240.07,211.2c6.11,0,12.22,0,18.34,0,.57,0,.67.16.66.69,0,1.62,0,3.24,0,4.85,0,.37-.09.48-.47.48q-18.51,0-37,0c-.42,0-.49-.15-.48-.52,0-1.64,0-3.28,0-4.92,0-.47.1-.59.59-.59C1227.8,211.21,1233.93,211.2,1240.07,211.2Z"/><path class="cls-2" d="M742.07,543.26a2.75,2.75,0,0,1-1.64,1.63,2.31,2.31,0,1,1,1.54-2.83c0,.08,0,.18.1.23Z"/><path class="cls-2" d="M686.8,546.31a25.67,25.67,0,0,1,17.37-24.55c.4-.14.82-.25,1.23-.38a2.36,2.36,0,0,1,3.23,1.47,6.91,6.91,0,0,0,2.67,3.22,6.79,6.79,0,0,0,6.88.4,2.57,2.57,0,0,1,2.42-.15,2.17,2.17,0,0,1,1.27,2,11.16,11.16,0,0,0,.22,3.1,6.94,6.94,0,0,0,7,5,2.83,2.83,0,0,1,2.54.71,2.15,2.15,0,0,1,.45,2.4,9.39,9.39,0,0,0-1,3.28,7,7,0,0,0,4.08,6.71,7.82,7.82,0,0,1,.87.43,2.26,2.26,0,0,1,.95,2.6c-3,10-9.62,16.35-19.87,18.43a25.28,25.28,0,0,1-27.86-14A24.64,24.64,0,0,1,686.8,546.31Zm21.29,7.8a2.31,2.31,0,0,0-2.32-2.32,2.32,2.32,0,1,0,2.32,2.32Zm6.22,4.6a2.31,2.31,0,0,0,2.28,2.36,2.35,2.35,0,0,0,2.36-2.3,2.37,2.37,0,0,0-2.27-2.34A2.32,2.32,0,0,0,714.31,558.71Zm-1.58-20.07a2.3,2.3,0,0,0-2.3-2.34,2.32,2.32,0,0,0,0,4.63A2.31,2.31,0,0,0,712.73,538.64Zm1.58,9.25a2.32,2.32,0,0,0,2.31,2.34A2.36,2.36,0,0,0,719,547.9a2.33,2.33,0,0,0-2.3-2.3A2.29,2.29,0,0,0,714.31,547.89Zm-17-4.6a2.32,2.32,0,1,0,2.31-2.34A2.31,2.31,0,0,0,697.26,543.29Z"/><path class="cls-2" d="M728.79,531.85a2.32,2.32,0,1,1,2.32-2.28A2.31,2.31,0,0,1,728.79,531.85Z"/><path class="cls-2" d="M714.58,522a2.32,2.32,0,1,1,0-4.63,2.35,2.35,0,0,1,2.32,2.28A2.32,2.32,0,0,1,714.58,522Z"/><path class="cls-2" d="M1400.22,180.19c.37-.26.3-.71.41-1.06a13.33,13.33,0,0,1,3.87-5.67,27.13,27.13,0,0,1,12.5-6.37c.5-.11.7,0,.89.51a23.78,23.78,0,0,0,17,15.45c.54.14.65.31.54.85A26,26,0,0,1,1425.4,200a10.94,10.94,0,0,1-4.43,2.1,5.8,5.8,0,0,1-6.85-5c-.38-2.39.23-4.65.71-6.93.12-.58,0-.74-.55-.77-2.28-.13-4.57-.24-6.84-.48s-4.57-1-6-3.12a6,6,0,0,1-.89-1.94c-.07-.23,0-.54-.3-.68Z"/><path class="cls-2" d="M1462.72,120.41a12.1,12.1,0,0,1,2.82,1.09,7.61,7.61,0,0,1,3.09,5.11,40.61,40.61,0,0,1,.47,5.72c.05.77.14,1.54.17,2.31,0,.45.19.5.61.42a22.45,22.45,0,0,1,5.81-.87c2.6.11,4.7,1.09,5.88,3.55a6.06,6.06,0,0,1-.23,5.24,18.8,18.8,0,0,1-5.2,6.57,26.13,26.13,0,0,1-11,5.8c-.64.15-.79,0-.92-.61-2-8.61-7.09-14.5-15.28-17.74-.1,0-.2-.09-.3-.12-1.5-.52-1.54-.54-1-2.06a25.23,25.23,0,0,1,7.32-11.67,11.16,11.16,0,0,1,5-2.56c.13,0,.28,0,.31-.18Z"/><path class="cls-2" d="M1459.9,159.6a19.29,19.29,0,1,1-19.32-19.24A19.28,19.28,0,0,1,1459.9,159.6Z"/><path class="cls-2" d="M181.07,609.75c.22-.2.18-.49.24-.73a7.91,7.91,0,0,1,7.44-5.93c1.11,0,2.22,0,3.33,0,.38,0,.47.15.59.45a21.23,21.23,0,0,0,12.76,12.84c.44.16.6.35.57.82a26.62,26.62,0,0,1-.22,4.72,7.8,7.8,0,0,1-6.57,6c-.05,0-.09.06-.13.1h-2.22c-.07-.21-.28-.14-.42-.18a7.89,7.89,0,0,1-6.19-7.85c0-1.14,0-1.14-1.15-1.15a7.9,7.9,0,0,1-7.85-6.19c0-.14,0-.34-.18-.42Z"/><path class="cls-2" d="M212.75,614.09a17.77,17.77,0,1,1,17.78-17.72A17.76,17.76,0,0,1,212.75,614.09Zm-11.12-21a6.12,6.12,0,0,0,1.59,4.59c3,3.11,6.1,6.17,9.15,9.25.18.19.29.22.48,0,3.1-3.12,6.27-6.18,9.29-9.38a6.14,6.14,0,0,0-.34-8.52,6.22,6.22,0,0,0-8.59-.15c-.46.43-.68.4-1.13,0a5.94,5.94,0,0,0-6.7-1.09A5.87,5.87,0,0,0,201.63,593.12Z"/><path class="cls-2" d="M235.18,589.76c-.54,0-1.08,0-1.61,0s-.55-.15-.68-.5a21.14,21.14,0,0,0-13.07-13.08c-.38-.15-.55-.29-.53-.72a24.94,24.94,0,0,1,.26-4.73A7.86,7.86,0,0,1,235,572a10.31,10.31,0,0,1,0,1.47c0,.45.14.56.56.54a8.06,8.06,0,0,1,6.06,2.06,7.85,7.85,0,0,1-5.12,13.66Z"/><path class="cls-2" d="M75.81,734a29,29,0,0,1-5.39,10.82,21.18,21.18,0,0,1-6.21,5.79c-4.91,2.85-10.7,1.69-14.41-2.85a16.84,16.84,0,0,1-1.65-2.38.8.8,0,0,0-.61-.45,14.64,14.64,0,0,1-8.31-5.19,7.8,7.8,0,0,1-1.58-3.08.53.53,0,0,0-.48-.46,13.48,13.48,0,0,1-7.28-4.6,8,8,0,0,1-1.81-4.23.56.56,0,0,0-.37-.51c-3.64-1.48-5.57-4.33-6.43-8a11.4,11.4,0,0,1,1.36-8.13A34.53,34.53,0,0,1,33.32,698.5a7.94,7.94,0,0,1,3.79-1.4c.08,0,.18,0,.21-.1h2.26a2,2,0,0,0,.79.25,6.64,6.64,0,0,1,4,3.26,1.2,1.2,0,0,0,1,.67,13.53,13.53,0,0,1,10.5,7.3A3.4,3.4,0,0,0,58,710.25a13.4,13.4,0,0,1,8.77,9,.75.75,0,0,0,.58.59,12.39,12.39,0,0,1,6.33,3.83A10.26,10.26,0,0,1,76,729c0,.12-.06.3.12.37V733C75.84,733.25,75.89,733.62,75.81,734Zm-30.9-15.14c-.86,3.29-1.92,6.52-2.69,9.83a17.31,17.31,0,0,0-.6,5.91,4.6,4.6,0,0,0,1.26,2.78A11.55,11.55,0,0,0,46.31,740a1.39,1.39,0,0,0,.66.21c.28-4.43,1.92-8.49,3.33-12.61a57.63,57.63,0,0,0,2.57-9,14.94,14.94,0,0,0,0-6.14,9.39,9.39,0,0,0-6.57-6.68C46.92,710.24,46,714.54,44.91,718.82ZM58,740.22c.82-2.83,2-5.54,3-8.31A32.68,32.68,0,0,0,63,724.62a9.47,9.47,0,0,0-5-9.77.76.76,0,0,0-.53-.18,23.05,23.05,0,0,1-.17,3.42,49.33,49.33,0,0,1-2.36,9.24c-1.08,3.2-2.33,6.34-3.13,9.63a12.25,12.25,0,0,0-.4,4.89,5.86,5.86,0,0,0,1.12,2.36,7.88,7.88,0,0,0,4.69,3.45l.36.06A13.82,13.82,0,0,1,58,740.22ZM40.62,702.55a2.44,2.44,0,0,0-2.28-1.25A4,4,0,0,0,34.85,703a3.06,3.06,0,0,0-.47,2.41,22.58,22.58,0,0,1-.13,9c-.5,2.77-1.26,5.48-1.72,8.25a23.5,23.5,0,0,0-.28,2.51,5.43,5.43,0,0,0,2,4.84A10.15,10.15,0,0,0,37,731.61c.26.1.38.1.42-.22.53-4.48,2.07-8.72,3.21-13.06A38.74,38.74,0,0,0,42.2,707.9,10.64,10.64,0,0,0,40.62,702.55Zm25.44,40.78a25.45,25.45,0,0,0,5.41-9.78,9.11,9.11,0,0,0-.24-5.7,6,6,0,0,0-3.63-3.37c-.45-.18-.3.26-.31.41A28.34,28.34,0,0,1,66,730.8c-1,3-2.21,5.82-3.22,8.75a16.69,16.69,0,0,0-1.24,5.74,4.06,4.06,0,0,0,.36,1.65A15.4,15.4,0,0,0,66.06,743.33ZM25.53,714.87A7.25,7.25,0,0,0,27.85,722c.13.1.34.42.42-.06.48-2.89,1.29-5.72,1.79-8.6a21.69,21.69,0,0,0,.37-5.45c0-.18,0-.36-.06-.54s0-.15-.08-.32A23.62,23.62,0,0,0,25.53,714.87Z"/><path class="cls-2" d="M417.07,696.51a17.26,17.26,0,0,0,0,2.69c0,.55-.16.64-.67.64-2.29,0-4.59,0-6.88,0a2.5,2.5,0,0,0-2.76,2.75,4.85,4.85,0,0,1,0,.66c0,.16.13.44-.11.46a.49.49,0,0,1-.55-.41,8.79,8.79,0,0,0-1.12-2.79l-.23-.37c-.56-.84-.56-.84.12-1.62a5.73,5.73,0,0,1,3.21-1.87c.09,0,.19,0,.22-.12Z"/><path class="cls-2" d="M396.49,752.82c-3.27,0-6.54,0-9.8,0-.43,0-.52-.15-.56-.51q-.94-8-1.91-16-.66-5.6-1.35-11.18a.69.69,0,0,1,.19-.63,4.47,4.47,0,0,1,6.6-.25c.48.46.88,1,1.36,1.44a7.76,7.76,0,0,0,11.14-.16c.45-.46.85-1,1.33-1.39a4.44,4.44,0,0,1,6.51.41.65.65,0,0,1,.18.54q-.85,6.86-1.67,13.73L407,751.18c0,.17-.05.33-.07.49-.16,1.15-.16,1.15-1.34,1.15Z"/><path class="cls-2" d="M410.69,720.85a7.75,7.75,0,0,0-4.85-1.19,8,8,0,0,0-5.5,3,5.22,5.22,0,0,1-2.81,1.91,4.64,4.64,0,0,1-4.8-1.85,8.39,8.39,0,0,0-3.45-2.55,7.69,7.69,0,0,0-6.93.67c-.09-.72-.17-1.4-.25-2.08-.14-1.11-.26-2.22-.41-3.32-.05-.36.07-.43.4-.43H411c.27,0,.45,0,.4.37C411.12,717.17,410.92,719,410.69,720.85Z"/><path class="cls-2" d="M390,711.69c-1.94,0-3.89,0-5.83,0-.53,0-.54-.15-.42-.59a6.5,6.5,0,0,1,12.54.07c.1.38.07.52-.4.52C394,711.68,392,711.69,390,711.69Z"/><path class="cls-2" d="M409.35,711.67l-.28,0h-12c-.4,0-.44-.13-.36-.46a6.5,6.5,0,0,1,12.64.26A1,1,0,0,1,409.35,711.67Z"/><path class="cls-2" d="M396.46,699a6.54,6.54,0,0,1,5.87,3.61c.17.31.19.45-.25.48a9.23,9.23,0,0,0-5.21,2.12c-.31.25-.46.18-.72,0a9.26,9.26,0,0,0-5.17-2.08c-.48,0-.43-.2-.26-.52A6.52,6.52,0,0,1,396.46,699Z"/><path class="cls-2" d="M501.73,476.15a6.13,6.13,0,0,1-2.85-.67,1.12,1.12,0,0,0-1.63.32,6.25,6.25,0,0,1-8.41,1.47,1.12,1.12,0,0,0-1.61.18,6.24,6.24,0,0,1-9,0,1.13,1.13,0,0,0-1.61-.17,6.27,6.27,0,0,1-8.38-1.43,1.12,1.12,0,0,0-1.66-.36,6.35,6.35,0,0,1-9.21-5.39,6.26,6.26,0,0,1,4.21-6.2,1.84,1.84,0,0,0,1.36-1.65,20,20,0,0,1,11.77-15c.36-.17.53-.11.75.24a14.75,14.75,0,0,0,6.84,5.39,1.09,1.09,0,0,0,.9,0,14.65,14.65,0,0,0,6.81-5.42c.2-.32.35-.36.67-.21a20.08,20.08,0,0,1,11.59,13.91,13.1,13.1,0,0,1,.28,1.52,1.36,1.36,0,0,0,1,1.17A6.07,6.07,0,0,1,508,469,6.28,6.28,0,0,1,501.73,476.15Z"/><path class="cls-2" d="M482.74,499.42H469.62a4.16,4.16,0,0,1-4.5-3.76c-.76-4.72-1.46-9.45-2.19-14.17-.15-1-.29-1.92-.45-2.87-.06-.32,0-.43.35-.39a8.07,8.07,0,0,0,3.83-.47.46.46,0,0,1,.58.12,8.32,8.32,0,0,0,9.63,1.69.56.56,0,0,1,.66.07,8.32,8.32,0,0,0,10.41,0,.59.59,0,0,1,.71-.05,8.4,8.4,0,0,0,9.54-1.65c.19-.18.33-.31.63-.18a7.82,7.82,0,0,0,3.83.47c.36,0,.41.06.35.39q-1.33,8.61-2.67,17.22a4.14,4.14,0,0,1-4.23,3.58Zm-9.52-4.3c0-.08,0-.2,0-.32q-1-5.66-2.08-11.29c-.13-.76-.66-1.16-1.27-1a1.13,1.13,0,0,0-.79,1.45q.74,4,1.45,8c.2,1.13.4,2.27.62,3.4a1.05,1.05,0,0,0,2.1-.17Zm19-.12a1.06,1.06,0,0,0,.93,1.22,1,1,0,0,0,1.17-1q1-5.61,2.05-11.24a1.09,1.09,0,0,0-.77-1.39,1.05,1.05,0,0,0-1.29,1c-.46,2.45-.9,4.9-1.35,7.35C492.76,492.32,492.5,493.72,492.27,495Zm-7.42.11a1,1,0,0,0,.94,1.11,1,1,0,0,0,1.17-1q.3-2.79.57-5.59c.17-1.61.33-3.23.48-4.85a1.05,1.05,0,1,0-2.08-.29c0,.22-.06.45-.09.67-.1,1.09-.21,2.17-.32,3.26C485.3,490.63,485.08,492.84,484.85,495.11Zm-4.22,0c-.16-1.66-.33-3.32-.49-5-.19-1.87-.37-3.73-.58-5.59a1,1,0,0,0-1.19-1,1.08,1.08,0,0,0-.9,1.26c.06.64.13,1.27.2,1.91.28,2.83.56,5.65.85,8.48a1,1,0,0,0,1.11,1A1,1,0,0,0,480.63,495.12Z"/><path class="cls-2" d="M489.07,443a6.19,6.19,0,0,1-1.64,4.4,13.77,13.77,0,0,1-4.38,3.18.63.63,0,0,1-.58,0,13.37,13.37,0,0,1-4.81-3.68,5.55,5.55,0,0,1-1.25-3.67,3.1,3.1,0,0,1,2.15-2.86,2.76,2.76,0,0,1,3.17,1.21c.59.83,1.39.87,2,.09A2.78,2.78,0,0,1,487,440.4,3,3,0,0,1,489.07,443Z"/><path class="cls-2" d="M468.83,189.48a4.17,4.17,0,0,1,3.09,1.33q3.06,3,6.11,6.11,8.5,8.49,17,17a4.27,4.27,0,1,1-5.88,6.2c-1.54-1.49-3-3-4.55-4.54l-18.71-18.71a4.25,4.25,0,0,1,.07-6.3A4,4,0,0,1,468.83,189.48Z"/><path class="cls-2" d="M464.19,198.82,487,221.66a17.51,17.51,0,0,1-22.84-22.84Z"/><path class="cls-2" d="M496.77,211.92,474,189.1a17.53,17.53,0,0,1,22.81,22.82Z"/><path class="cls-2" d="M455,234.61a3.74,3.74,0,0,1-3.3-2.14,3.62,3.62,0,0,1,.36-4,5.41,5.41,0,0,1,.56-.62Q458,222.45,463.45,217c.28-.29.42-.32.67,0a17.48,17.48,0,0,0,4.69,4.7c.3.2.42.31.09.63q-5.49,5.44-10.93,10.92A4.11,4.11,0,0,1,455,234.61Z"/><path class="cls-2" d="M89.07,350.09v9.8a8.19,8.19,0,0,1-8.43,8.4H63.08a8.17,8.17,0,0,1-8.4-8.41c0-6.63,0-13.25,0-19.87a17.19,17.19,0,0,1,34-2.84,16.9,16.9,0,0,1,.35,3.75C89.06,344,89.07,347,89.07,350.09ZM64.3,348.31c0,2.69,0,5.38,0,8.07a1.85,1.85,0,1,0,3.69,0q0-8.13,0-16.26a1.8,1.8,0,0,0-1-1.68,1.82,1.82,0,0,0-2.71,1.64C64.28,342.85,64.3,345.58,64.3,348.31Zm15.15,0v-8a1.86,1.86,0,1,0-3.7,0c0,5.33,0,10.67,0,16a2.23,2.23,0,0,0,.25,1.11,1.86,1.86,0,0,0,2.08.88,1.8,1.8,0,0,0,1.36-1.79C79.45,353.77,79.45,351,79.45,348.3Z"/><path class="cls-2" d="M71.86,371.37c1.52,0,3,0,4.55,0,.43,0,.6.07.58.55-.06,1.49.11,3-.08,4.48a5,5,0,0,1-5.35,4.46,5.1,5.1,0,0,1-4.78-5c0-1.35,0-2.7,0-4,0-.4.16-.44.49-.44C68.79,371.38,70.32,371.37,71.86,371.37Z"/><path class="cls-2" d="M893.31,753.09H870.93a6.16,6.16,0,0,1-.54-12.31,14.93,14.93,0,0,1,1.77,0c.47,0,.61-.11.62-.58a18.76,18.76,0,0,1,1.71-7.71c3.21-6.9,8.6-11,16.13-12.08a20.38,20.38,0,0,1,22.3,14.23,17.76,17.76,0,0,1,.89,5.4c0,.64.2.76.79.74a9.49,9.49,0,0,1,2.95.21,6.17,6.17,0,0,1,4.48,6.74,6.1,6.1,0,0,1-5.76,5.33c-2.21.07-4.43,0-6.64,0ZM890,731a1.56,1.56,0,1,0-1.49,1.58A1.57,1.57,0,0,0,890,731Zm8.21,3.62a1.54,1.54,0,0,0,1.55-1.57,1.55,1.55,0,0,0-3.09,0A1.55,1.55,0,0,0,898.2,734.58Zm-4.63,3.59a1.54,1.54,0,1,0-3.07,0,1.54,1.54,0,1,0,3.07,0Z"/><path class="cls-2" d="M893.37,756.2c7.12,0,14.25,0,21.37,0,.55,0,.69.08.59.67-1,5.83-2,11.66-3,17.49a4.07,4.07,0,0,1-4.08,3.44c-.86,0-1.73,0-2.59,0-.49,0-.56-.16-.5-.58.32-2.46.62-4.93.93-7.39q.52-4.14,1-8.28a1.53,1.53,0,0,0-1.29-1.74,1.47,1.47,0,0,0-1.73,1.26c-.24,1.5-.41,3-.59,4.51q-.72,5.83-1.43,11.67c0,.4-.17.56-.62.55-2,0-4,0-6.07,0-.47,0-.6-.12-.59-.6q0-7.68,0-15.36a3.76,3.76,0,0,0-.08-1,1.54,1.54,0,0,0-3,.29,5.45,5.45,0,0,0,0,.7c0,5.12,0,10.24,0,15.37,0,.51-.15.62-.63.61-2,0-4,0-6,0-.46,0-.6-.12-.66-.57-.38-3.22-.79-6.44-1.18-9.65-.26-2.11-.51-4.23-.79-6.34a1.54,1.54,0,1,0-3,.39q.94,7.61,1.9,15.23c0,.19,0,.38.06.57s-.06.37-.33.36c-1,0-2,0-3,0a4,4,0,0,1-3.84-3.55q-1.46-8.65-2.91-17.31c-.1-.57,0-.72.61-.71C879.08,756.21,886.22,756.2,893.37,756.2Z"/><path class="cls-2" d="M1746.07,701.42a4.19,4.19,0,0,0-3.09,1.33l-6.11,6.11-17,17a4.31,4.31,0,0,0-.68,5.52,4.27,4.27,0,0,0,6.57.68c1.54-1.49,3-3,4.55-4.54L1749,708.8a4.23,4.23,0,0,0-.08-6.29A4,4,0,0,0,1746.07,701.42Z"/><path class="cls-2" d="M1750.71,710.77l-22.84,22.83a17.5,17.5,0,0,0,22.84-22.83Z"/><path class="cls-2" d="M1718.13,723.86,1740.94,701a17.53,17.53,0,0,0-22.81,22.82Z"/><path class="cls-2" d="M1759.91,746.55a3.72,3.72,0,0,0,3.3-2.14,3.6,3.6,0,0,0-.36-4,4.76,4.76,0,0,0-.56-.63q-5.41-5.43-10.84-10.86c-.29-.28-.42-.32-.67,0a17.37,17.37,0,0,1-4.7,4.7c-.29.21-.41.31-.08.64q5.48,5.43,10.93,10.91A4.09,4.09,0,0,0,1759.91,746.55Z"/><path class="cls-2" d="M1644.5,316.58v11.29a9.43,9.43,0,0,1-9.7,9.67h-20.22a9.41,9.41,0,0,1-9.67-9.69c0-7.62-.06-15.25,0-22.87a19.79,19.79,0,0,1,39.57,1C1644.49,309.55,1644.5,313.07,1644.5,316.58Zm-28.52-2c0,3.09,0,6.19,0,9.28a2.12,2.12,0,0,0,2.08,2.29,2.14,2.14,0,0,0,2.16-2.23q0-9.36,0-18.72a2.12,2.12,0,1,0-4.24-.05C1616,308.25,1616,311.39,1616,314.54Zm17.44,0c0-3.07,0-6.14,0-9.21a2.14,2.14,0,1,0-4.25,0q0,9.21,0,18.42a2.58,2.58,0,0,0,.28,1.28,2.14,2.14,0,0,0,2.4,1,2.09,2.09,0,0,0,1.57-2.07C1633.43,320.82,1633.42,317.67,1633.42,314.53Z"/><path class="cls-2" d="M1624.69,341.08c1.75,0,3.49,0,5.24,0,.49,0,.69.09.66.63-.07,1.72.13,3.45-.09,5.16a5.85,5.85,0,0,1-11.66-.63c0-1.55,0-3.1,0-4.65,0-.47.19-.51.57-.51C1621.15,341.09,1622.92,341.08,1624.69,341.08Z"/><path class="cls-2" d="M1380.64,463.08c0-2.87,0-5.74,0-8.61a1.17,1.17,0,0,0-.6-1.14,35.12,35.12,0,0,1-9.52-9,15.83,15.83,0,0,1-3-8.64,8.93,8.93,0,0,1,7-9.16,8.63,8.63,0,0,1,8.82,3.51c.32.4.42.37.7,0a8.9,8.9,0,0,1,10-3.2,9.17,9.17,0,0,1,5.88,8.88,16.83,16.83,0,0,1-4.08,10,37.09,37.09,0,0,1-8.55,7.65,1.07,1.07,0,0,0-.54,1q0,8.64,0,17.28a3,3,0,0,1-6,.88,5.65,5.65,0,0,1-.07-1Q1380.64,467.33,1380.64,463.08Z"/><path class="cls-2" d="M1769.54,80.87a6.34,6.34,0,0,1-2.86-.68,1.1,1.1,0,0,0-1.62.33,6.27,6.27,0,0,1-8.42,1.46,1.11,1.11,0,0,0-1.6.18,6.24,6.24,0,0,1-9,0,1.13,1.13,0,0,0-1.61-.17,6.27,6.27,0,0,1-8.38-1.43,1.13,1.13,0,0,0-1.67-.36,6.34,6.34,0,0,1-9.2-5.39,6.24,6.24,0,0,1,4.21-6.2,1.84,1.84,0,0,0,1.36-1.65,20,20,0,0,1,11.76-15c.37-.17.54-.11.76.24a14.7,14.7,0,0,0,6.84,5.39,1.09,1.09,0,0,0,.9,0,14.7,14.7,0,0,0,6.81-5.42c.2-.32.34-.36.67-.21A20.08,20.08,0,0,1,1770.1,65.8a13.1,13.1,0,0,1,.28,1.52,1.35,1.35,0,0,0,1,1.17,6.07,6.07,0,0,1,4.42,5.26A6.29,6.29,0,0,1,1769.54,80.87Z"/><path class="cls-2" d="M1750.55,104.13h-13.12a4.17,4.17,0,0,1-4.5-3.77c-.76-4.72-1.46-9.45-2.19-14.17-.15-1-.29-1.92-.45-2.87-.06-.32,0-.43.35-.39a8,8,0,0,0,3.82-.47.48.48,0,0,1,.59.12,8.32,8.32,0,0,0,9.63,1.69.56.56,0,0,1,.66.07,8.32,8.32,0,0,0,10.41,0,.59.59,0,0,1,.71,0,8.39,8.39,0,0,0,9.54-1.65c.19-.18.33-.31.63-.18a7.79,7.79,0,0,0,3.82.47c.36,0,.41.06.36.39-.9,5.74-1.77,11.49-2.67,17.22a4.15,4.15,0,0,1-4.23,3.58Zm-9.53-4.3a1.31,1.31,0,0,0,0-.32q-1-5.66-2.07-11.29c-.14-.76-.66-1.16-1.27-1s-.92.7-.79,1.45c.49,2.65,1,5.3,1.44,8,.21,1.13.41,2.27.63,3.4a1,1,0,0,0,2.09-.17Zm19.06-.12a1.06,1.06,0,0,0,.93,1.22c.62.06,1-.3,1.17-1,.69-3.74,1.36-7.49,2-11.24a1.09,1.09,0,0,0-.78-1.39c-.65-.13-1.14.23-1.28,1-.46,2.45-.9,4.9-1.35,7.35C1760.57,97,1760.31,98.43,1760.08,99.71Zm-7.42.11a1,1,0,0,0,.94,1.11,1,1,0,0,0,1.16-1c.21-1.86.39-3.72.58-5.58q.26-2.43.48-4.86a1.06,1.06,0,0,0-.9-1.2,1,1,0,0,0-1.18.91c0,.22-.06.45-.09.67-.11,1.09-.21,2.17-.32,3.26C1753.11,95.34,1752.89,97.55,1752.66,99.82Zm-4.22,0c-.17-1.66-.33-3.32-.5-5-.18-1.87-.36-3.73-.58-5.59a1,1,0,0,0-1.18-1,1.08,1.08,0,0,0-.9,1.26c.06.64.13,1.27.19,1.91.29,2.83.57,5.65.86,8.48a1,1,0,0,0,1.11,1A1,1,0,0,0,1748.44,99.83Z"/><path class="cls-2" d="M1756.88,47.7a6.15,6.15,0,0,1-1.65,4.4,13.62,13.62,0,0,1-4.37,3.18.63.63,0,0,1-.58,0,13.5,13.5,0,0,1-4.82-3.68,5.59,5.59,0,0,1-1.24-3.67,3.08,3.08,0,0,1,2.15-2.86,2.75,2.75,0,0,1,3.16,1.21,1.11,1.11,0,0,0,2,.09,2.78,2.78,0,0,1,3.29-1.28A3,3,0,0,1,1756.88,47.7Z"/><path class="cls-2" d="M1803.07,476.75c.22-.2.18-.49.24-.73a7.91,7.91,0,0,1,7.44-5.93c1.11,0,2.22,0,3.33,0,.38,0,.47.15.59.45a21.23,21.23,0,0,0,12.76,12.84c.44.16.6.35.57.82a26.62,26.62,0,0,1-.22,4.72,7.8,7.8,0,0,1-6.57,6s-.09.06-.13.1h-2.22c-.07-.21-.28-.14-.42-.18a7.89,7.89,0,0,1-6.19-7.85c0-1.14,0-1.14-1.15-1.15a7.9,7.9,0,0,1-7.85-6.19c0-.14,0-.34-.18-.42Z"/><path class="cls-2" d="M1834.75,481.09a17.77,17.77,0,1,1,17.78-17.72A17.76,17.76,0,0,1,1834.75,481.09Zm-11.12-21a6.12,6.12,0,0,0,1.59,4.59c3,3.11,6.1,6.17,9.15,9.25.18.19.29.22.48,0,3.1-3.12,6.27-6.18,9.29-9.38a6.14,6.14,0,0,0-.34-8.52,6.22,6.22,0,0,0-8.59-.15c-.46.43-.68.4-1.13,0a5.94,5.94,0,0,0-6.7-1.09A5.87,5.87,0,0,0,1823.63,460.12Z"/><path class="cls-2" d="M1857.18,456.76c-.54,0-1.08,0-1.61,0s-.55-.15-.68-.5a21.14,21.14,0,0,0-13.07-13.08c-.38-.15-.55-.29-.53-.72a24.94,24.94,0,0,1,.26-4.73A7.86,7.86,0,0,1,1857,439a10.31,10.31,0,0,1,0,1.47c0,.45.14.56.56.54a8.06,8.06,0,0,1,6.06,2.06,7.85,7.85,0,0,1-5.12,13.66Z"/></g></g></g></g></g></svg>